<mxfile host="app.diagrams.net" agent="Mozilla/5.0 (Windows NT 10.0; Win64; x64) AppleWebKit/537.36 (KHTML, like Gecko) Chrome/138.0.0.0 Safari/537.36 Edg/138.0.0.0" version="28.0.4">
  <diagram name="第 1 页" id="y0LzZpdCisVvOP-Uc2nc">
    <mxGraphModel dx="1347" dy="751" grid="1" gridSize="10" guides="1" tooltips="1" connect="1" arrows="1" fold="1" page="1" pageScale="1" pageWidth="1000" pageHeight="1000" math="0" shadow="0">
      <root>
        <mxCell id="0" />
        <mxCell id="1" parent="0" />
        <mxCell id="tNPvkO_qZganLPPO9eDa-135" value="" style="rounded=1;whiteSpace=wrap;html=1;arcSize=22;" parent="1" vertex="1">
          <mxGeometry x="1065" y="10" width="90" height="190" as="geometry" />
        </mxCell>
        <mxCell id="tNPvkO_qZganLPPO9eDa-133" value="" style="rounded=1;whiteSpace=wrap;html=1;arcSize=10;" parent="1" vertex="1">
          <mxGeometry x="820" y="10" width="230" height="190" as="geometry" />
        </mxCell>
        <mxCell id="tNPvkO_qZganLPPO9eDa-56" value="" style="rounded=1;whiteSpace=wrap;html=1;arcSize=22;" parent="1" vertex="1">
          <mxGeometry x="510" y="10" width="90" height="190" as="geometry" />
        </mxCell>
        <mxCell id="tNPvkO_qZganLPPO9eDa-54" value="" style="rounded=1;whiteSpace=wrap;html=1;arcSize=10;" parent="1" vertex="1">
          <mxGeometry x="290" y="10" width="210" height="190" as="geometry" />
        </mxCell>
        <mxCell id="tNPvkO_qZganLPPO9eDa-1" value="1" style="ellipse;whiteSpace=wrap;html=1;" parent="1" vertex="1">
          <mxGeometry x="120" y="10" width="30" height="30" as="geometry" />
        </mxCell>
        <mxCell id="tNPvkO_qZganLPPO9eDa-2" value="2" style="ellipse;whiteSpace=wrap;html=1;" parent="1" vertex="1">
          <mxGeometry x="80" y="70" width="30" height="30" as="geometry" />
        </mxCell>
        <mxCell id="tNPvkO_qZganLPPO9eDa-3" value="3" style="ellipse;whiteSpace=wrap;html=1;" parent="1" vertex="1">
          <mxGeometry x="120" y="140" width="30" height="30" as="geometry" />
        </mxCell>
        <mxCell id="tNPvkO_qZganLPPO9eDa-5" value="" style="endArrow=classic;html=1;rounded=0;exitX=1;exitY=0;exitDx=0;exitDy=0;entryX=0;entryY=1;entryDx=0;entryDy=0;" parent="1" source="tNPvkO_qZganLPPO9eDa-2" target="tNPvkO_qZganLPPO9eDa-1" edge="1">
          <mxGeometry width="50" height="50" relative="1" as="geometry">
            <mxPoint x="250" y="140" as="sourcePoint" />
            <mxPoint x="120" y="80" as="targetPoint" />
          </mxGeometry>
        </mxCell>
        <mxCell id="tNPvkO_qZganLPPO9eDa-7" value="" style="endArrow=classic;html=1;rounded=0;exitX=0;exitY=0;exitDx=0;exitDy=0;entryX=1;entryY=1;entryDx=0;entryDy=0;" parent="1" source="tNPvkO_qZganLPPO9eDa-3" target="tNPvkO_qZganLPPO9eDa-2" edge="1">
          <mxGeometry width="50" height="50" relative="1" as="geometry">
            <mxPoint x="110" y="100" as="sourcePoint" />
            <mxPoint x="92" y="138" as="targetPoint" />
          </mxGeometry>
        </mxCell>
        <mxCell id="tNPvkO_qZganLPPO9eDa-10" value="" style="endArrow=classic;html=1;rounded=0;exitX=0.5;exitY=1;exitDx=0;exitDy=0;entryX=0.5;entryY=0;entryDx=0;entryDy=0;" parent="1" source="tNPvkO_qZganLPPO9eDa-1" target="tNPvkO_qZganLPPO9eDa-3" edge="1">
          <mxGeometry width="50" height="50" relative="1" as="geometry">
            <mxPoint x="120" y="110" as="sourcePoint" />
            <mxPoint x="138" y="158" as="targetPoint" />
          </mxGeometry>
        </mxCell>
        <mxCell id="tNPvkO_qZganLPPO9eDa-62" style="rounded=0;orthogonalLoop=1;jettySize=auto;html=1;exitX=0;exitY=0.5;exitDx=0;exitDy=0;entryX=1;entryY=0;entryDx=0;entryDy=0;" parent="1" source="tNPvkO_qZganLPPO9eDa-12" target="tNPvkO_qZganLPPO9eDa-3" edge="1">
          <mxGeometry relative="1" as="geometry" />
        </mxCell>
        <mxCell id="tNPvkO_qZganLPPO9eDa-12" value="7" style="ellipse;whiteSpace=wrap;html=1;" parent="1" vertex="1">
          <mxGeometry x="240" y="70" width="30" height="30" as="geometry" />
        </mxCell>
        <mxCell id="tNPvkO_qZganLPPO9eDa-61" style="edgeStyle=orthogonalEdgeStyle;rounded=0;orthogonalLoop=1;jettySize=auto;html=1;exitX=0.5;exitY=1;exitDx=0;exitDy=0;entryX=0.5;entryY=0;entryDx=0;entryDy=0;" parent="1" source="tNPvkO_qZganLPPO9eDa-13" target="tNPvkO_qZganLPPO9eDa-58" edge="1">
          <mxGeometry relative="1" as="geometry" />
        </mxCell>
        <mxCell id="tNPvkO_qZganLPPO9eDa-13" value="5" style="ellipse;whiteSpace=wrap;html=1;" parent="1" vertex="1">
          <mxGeometry x="160" y="70" width="30" height="30" as="geometry" />
        </mxCell>
        <mxCell id="tNPvkO_qZganLPPO9eDa-14" value="6" style="ellipse;whiteSpace=wrap;html=1;" parent="1" vertex="1">
          <mxGeometry x="200" y="10" width="30" height="30" as="geometry" />
        </mxCell>
        <mxCell id="tNPvkO_qZganLPPO9eDa-16" value="" style="endArrow=classic;html=1;rounded=0;exitX=1;exitY=1;exitDx=0;exitDy=0;entryX=0;entryY=0;entryDx=0;entryDy=0;" parent="1" source="tNPvkO_qZganLPPO9eDa-1" target="tNPvkO_qZganLPPO9eDa-13" edge="1">
          <mxGeometry width="50" height="50" relative="1" as="geometry">
            <mxPoint x="160" y="70" as="sourcePoint" />
            <mxPoint x="170" y="170" as="targetPoint" />
          </mxGeometry>
        </mxCell>
        <mxCell id="tNPvkO_qZganLPPO9eDa-17" value="" style="endArrow=classic;html=1;rounded=0;exitX=0;exitY=1;exitDx=0;exitDy=0;entryX=1;entryY=0;entryDx=0;entryDy=0;" parent="1" source="tNPvkO_qZganLPPO9eDa-14" target="tNPvkO_qZganLPPO9eDa-13" edge="1">
          <mxGeometry width="50" height="50" relative="1" as="geometry">
            <mxPoint x="170" y="40" as="sourcePoint" />
            <mxPoint x="198" y="78" as="targetPoint" />
          </mxGeometry>
        </mxCell>
        <mxCell id="tNPvkO_qZganLPPO9eDa-19" value="" style="endArrow=classic;html=1;rounded=0;exitX=1;exitY=0.5;exitDx=0;exitDy=0;entryX=0;entryY=0.5;entryDx=0;entryDy=0;" parent="1" source="tNPvkO_qZganLPPO9eDa-1" target="tNPvkO_qZganLPPO9eDa-14" edge="1">
          <mxGeometry width="50" height="50" relative="1" as="geometry">
            <mxPoint x="160" y="50" as="sourcePoint" />
            <mxPoint x="188" y="88" as="targetPoint" />
          </mxGeometry>
        </mxCell>
        <mxCell id="tNPvkO_qZganLPPO9eDa-22" value="" style="endArrow=classic;html=1;rounded=0;exitX=1;exitY=1;exitDx=0;exitDy=0;entryX=0;entryY=0;entryDx=0;entryDy=0;" parent="1" source="tNPvkO_qZganLPPO9eDa-14" target="tNPvkO_qZganLPPO9eDa-12" edge="1">
          <mxGeometry width="50" height="50" relative="1" as="geometry">
            <mxPoint x="248" y="32" as="sourcePoint" />
            <mxPoint x="230" y="70" as="targetPoint" />
          </mxGeometry>
        </mxCell>
        <mxCell id="tNPvkO_qZganLPPO9eDa-33" style="edgeStyle=orthogonalEdgeStyle;rounded=0;orthogonalLoop=1;jettySize=auto;html=1;exitX=0;exitY=1;exitDx=0;exitDy=0;entryX=0.5;entryY=0;entryDx=0;entryDy=0;" parent="1" source="tNPvkO_qZganLPPO9eDa-23" target="tNPvkO_qZganLPPO9eDa-25" edge="1">
          <mxGeometry relative="1" as="geometry" />
        </mxCell>
        <mxCell id="tNPvkO_qZganLPPO9eDa-34" style="edgeStyle=orthogonalEdgeStyle;rounded=0;orthogonalLoop=1;jettySize=auto;html=1;exitX=0.5;exitY=1;exitDx=0;exitDy=0;entryX=0.5;entryY=0;entryDx=0;entryDy=0;" parent="1" source="tNPvkO_qZganLPPO9eDa-23" target="tNPvkO_qZganLPPO9eDa-26" edge="1">
          <mxGeometry relative="1" as="geometry" />
        </mxCell>
        <mxCell id="tNPvkO_qZganLPPO9eDa-35" style="edgeStyle=orthogonalEdgeStyle;rounded=0;orthogonalLoop=1;jettySize=auto;html=1;exitX=1;exitY=1;exitDx=0;exitDy=0;entryX=0.5;entryY=0;entryDx=0;entryDy=0;" parent="1" source="tNPvkO_qZganLPPO9eDa-23" target="tNPvkO_qZganLPPO9eDa-27" edge="1">
          <mxGeometry relative="1" as="geometry" />
        </mxCell>
        <mxCell id="tNPvkO_qZganLPPO9eDa-44" style="edgeStyle=orthogonalEdgeStyle;rounded=1;orthogonalLoop=1;jettySize=auto;html=1;exitX=1;exitY=0.5;exitDx=0;exitDy=0;entryX=1;entryY=0.5;entryDx=0;entryDy=0;dashed=1;curved=0;" parent="1" source="tNPvkO_qZganLPPO9eDa-23" target="tNPvkO_qZganLPPO9eDa-28" edge="1">
          <mxGeometry relative="1" as="geometry">
            <Array as="points">
              <mxPoint x="490" y="35" />
              <mxPoint x="490" y="155" />
            </Array>
          </mxGeometry>
        </mxCell>
        <mxCell id="tNPvkO_qZganLPPO9eDa-23" value="1" style="ellipse;whiteSpace=wrap;html=1;" parent="1" vertex="1">
          <mxGeometry x="380" y="20" width="30" height="30" as="geometry" />
        </mxCell>
        <mxCell id="tNPvkO_qZganLPPO9eDa-39" style="edgeStyle=orthogonalEdgeStyle;rounded=0;orthogonalLoop=1;jettySize=auto;html=1;exitX=0.5;exitY=1;exitDx=0;exitDy=0;entryX=0.5;entryY=0;entryDx=0;entryDy=0;" parent="1" source="tNPvkO_qZganLPPO9eDa-25" target="tNPvkO_qZganLPPO9eDa-38" edge="1">
          <mxGeometry relative="1" as="geometry" />
        </mxCell>
        <mxCell id="tNPvkO_qZganLPPO9eDa-25" value="3" style="ellipse;whiteSpace=wrap;html=1;" parent="1" vertex="1">
          <mxGeometry x="330" y="80" width="30" height="30" as="geometry" />
        </mxCell>
        <mxCell id="tNPvkO_qZganLPPO9eDa-60" style="edgeStyle=orthogonalEdgeStyle;rounded=0;orthogonalLoop=1;jettySize=auto;html=1;exitX=0.5;exitY=1;exitDx=0;exitDy=0;entryX=0.5;entryY=0;entryDx=0;entryDy=0;" parent="1" source="tNPvkO_qZganLPPO9eDa-26" target="tNPvkO_qZganLPPO9eDa-59" edge="1">
          <mxGeometry relative="1" as="geometry" />
        </mxCell>
        <mxCell id="tNPvkO_qZganLPPO9eDa-26" value="5" style="ellipse;whiteSpace=wrap;html=1;" parent="1" vertex="1">
          <mxGeometry x="380" y="80" width="30" height="30" as="geometry" />
        </mxCell>
        <mxCell id="tNPvkO_qZganLPPO9eDa-36" style="edgeStyle=orthogonalEdgeStyle;rounded=0;orthogonalLoop=1;jettySize=auto;html=1;exitX=0.5;exitY=1;exitDx=0;exitDy=0;" parent="1" source="tNPvkO_qZganLPPO9eDa-27" target="tNPvkO_qZganLPPO9eDa-28" edge="1">
          <mxGeometry relative="1" as="geometry" />
        </mxCell>
        <mxCell id="tNPvkO_qZganLPPO9eDa-41" style="edgeStyle=orthogonalEdgeStyle;rounded=0;orthogonalLoop=1;jettySize=auto;html=1;exitX=0;exitY=0.5;exitDx=0;exitDy=0;entryX=1;entryY=0.5;entryDx=0;entryDy=0;dashed=1;" parent="1" source="tNPvkO_qZganLPPO9eDa-27" target="tNPvkO_qZganLPPO9eDa-26" edge="1">
          <mxGeometry relative="1" as="geometry" />
        </mxCell>
        <mxCell id="tNPvkO_qZganLPPO9eDa-27" value="6" style="ellipse;whiteSpace=wrap;html=1;" parent="1" vertex="1">
          <mxGeometry x="430" y="80" width="30" height="30" as="geometry" />
        </mxCell>
        <mxCell id="tNPvkO_qZganLPPO9eDa-63" style="edgeStyle=orthogonalEdgeStyle;rounded=1;orthogonalLoop=1;jettySize=auto;html=1;exitX=0;exitY=0.5;exitDx=0;exitDy=0;entryX=1;entryY=1;entryDx=0;entryDy=0;dashed=1;curved=0;" parent="1" source="tNPvkO_qZganLPPO9eDa-28" target="tNPvkO_qZganLPPO9eDa-25" edge="1">
          <mxGeometry relative="1" as="geometry">
            <Array as="points">
              <mxPoint x="430" y="120" />
              <mxPoint x="356" y="120" />
            </Array>
          </mxGeometry>
        </mxCell>
        <mxCell id="tNPvkO_qZganLPPO9eDa-28" value="7" style="ellipse;whiteSpace=wrap;html=1;" parent="1" vertex="1">
          <mxGeometry x="430" y="140" width="30" height="30" as="geometry" />
        </mxCell>
        <mxCell id="tNPvkO_qZganLPPO9eDa-52" style="edgeStyle=orthogonalEdgeStyle;rounded=1;orthogonalLoop=1;jettySize=auto;html=1;exitX=0;exitY=0.5;exitDx=0;exitDy=0;entryX=1;entryY=0;entryDx=0;entryDy=0;curved=0;dashed=1;" parent="1" source="tNPvkO_qZganLPPO9eDa-30" target="tNPvkO_qZganLPPO9eDa-25" edge="1">
          <mxGeometry relative="1" as="geometry">
            <Array as="points">
              <mxPoint x="540" y="60" />
              <mxPoint x="356" y="60" />
            </Array>
          </mxGeometry>
        </mxCell>
        <mxCell id="tNPvkO_qZganLPPO9eDa-53" style="edgeStyle=orthogonalEdgeStyle;rounded=1;orthogonalLoop=1;jettySize=auto;html=1;exitX=0.5;exitY=1;exitDx=0;exitDy=0;entryX=1;entryY=0;entryDx=0;entryDy=0;curved=0;dashed=1;" parent="1" source="tNPvkO_qZganLPPO9eDa-30" target="tNPvkO_qZganLPPO9eDa-28" edge="1">
          <mxGeometry relative="1" as="geometry">
            <Array as="points">
              <mxPoint x="555" y="120" />
              <mxPoint x="456" y="120" />
            </Array>
          </mxGeometry>
        </mxCell>
        <mxCell id="tNPvkO_qZganLPPO9eDa-30" value="4" style="ellipse;whiteSpace=wrap;html=1;" parent="1" vertex="1">
          <mxGeometry x="540" y="20" width="30" height="30" as="geometry" />
        </mxCell>
        <mxCell id="tNPvkO_qZganLPPO9eDa-40" style="edgeStyle=orthogonalEdgeStyle;rounded=1;orthogonalLoop=1;jettySize=auto;html=1;exitX=0;exitY=0.5;exitDx=0;exitDy=0;entryX=0;entryY=0.5;entryDx=0;entryDy=0;dashed=1;curved=0;" parent="1" source="tNPvkO_qZganLPPO9eDa-38" target="tNPvkO_qZganLPPO9eDa-23" edge="1">
          <mxGeometry relative="1" as="geometry">
            <Array as="points">
              <mxPoint x="300" y="155" />
              <mxPoint x="300" y="35" />
            </Array>
          </mxGeometry>
        </mxCell>
        <mxCell id="tNPvkO_qZganLPPO9eDa-38" value="2" style="ellipse;whiteSpace=wrap;html=1;" parent="1" vertex="1">
          <mxGeometry x="330" y="140" width="30" height="30" as="geometry" />
        </mxCell>
        <mxCell id="tNPvkO_qZganLPPO9eDa-43" value="" style="endArrow=classic;html=1;rounded=0;exitX=0.979;exitY=0.712;exitDx=0;exitDy=0;entryX=0;entryY=0.333;entryDx=0;entryDy=0;exitPerimeter=0;entryPerimeter=0;" parent="1" source="tNPvkO_qZganLPPO9eDa-1" target="tNPvkO_qZganLPPO9eDa-12" edge="1">
          <mxGeometry width="50" height="50" relative="1" as="geometry">
            <mxPoint x="248" y="50" as="sourcePoint" />
            <mxPoint x="220" y="88" as="targetPoint" />
          </mxGeometry>
        </mxCell>
        <mxCell id="tNPvkO_qZganLPPO9eDa-48" style="edgeStyle=orthogonalEdgeStyle;rounded=0;orthogonalLoop=1;jettySize=auto;html=1;exitX=0;exitY=0.5;exitDx=0;exitDy=0;entryX=1;entryY=0.5;entryDx=0;entryDy=0;" parent="1" source="tNPvkO_qZganLPPO9eDa-45" target="tNPvkO_qZganLPPO9eDa-3" edge="1">
          <mxGeometry relative="1" as="geometry">
            <Array as="points">
              <mxPoint x="180" y="155" />
              <mxPoint x="180" y="155" />
            </Array>
          </mxGeometry>
        </mxCell>
        <mxCell id="tNPvkO_qZganLPPO9eDa-45" value="4" style="ellipse;whiteSpace=wrap;html=1;" parent="1" vertex="1">
          <mxGeometry x="200" y="140" width="30" height="30" as="geometry" />
        </mxCell>
        <mxCell id="tNPvkO_qZganLPPO9eDa-51" value="" style="endArrow=classic;html=1;rounded=0;exitX=1;exitY=0;exitDx=0;exitDy=0;entryX=0;entryY=1;entryDx=0;entryDy=0;" parent="1" source="tNPvkO_qZganLPPO9eDa-45" target="tNPvkO_qZganLPPO9eDa-12" edge="1">
          <mxGeometry width="50" height="50" relative="1" as="geometry">
            <mxPoint x="220" y="60" as="sourcePoint" />
            <mxPoint x="321" y="109" as="targetPoint" />
          </mxGeometry>
        </mxCell>
        <mxCell id="tNPvkO_qZganLPPO9eDa-55" value="DFS Tree 1" style="text;html=1;align=center;verticalAlign=middle;whiteSpace=wrap;rounded=0;" parent="1" vertex="1">
          <mxGeometry x="365" y="170" width="65" height="30" as="geometry" />
        </mxCell>
        <mxCell id="tNPvkO_qZganLPPO9eDa-58" value="8" style="ellipse;whiteSpace=wrap;html=1;" parent="1" vertex="1">
          <mxGeometry x="160" y="210" width="30" height="30" as="geometry" />
        </mxCell>
        <mxCell id="tNPvkO_qZganLPPO9eDa-59" value="8" style="ellipse;whiteSpace=wrap;html=1;" parent="1" vertex="1">
          <mxGeometry x="380" y="140" width="30" height="30" as="geometry" />
        </mxCell>
        <mxCell id="tNPvkO_qZganLPPO9eDa-64" value="Previsit:&amp;nbsp;" style="text;html=1;align=center;verticalAlign=middle;whiteSpace=wrap;rounded=0;" parent="1" vertex="1">
          <mxGeometry x="280" y="210" width="60" height="30" as="geometry" />
        </mxCell>
        <mxCell id="tNPvkO_qZganLPPO9eDa-65" value="1" style="ellipse;whiteSpace=wrap;html=1;" parent="1" vertex="1">
          <mxGeometry x="340" y="210" width="30" height="30" as="geometry" />
        </mxCell>
        <mxCell id="tNPvkO_qZganLPPO9eDa-66" value="3" style="ellipse;whiteSpace=wrap;html=1;" parent="1" vertex="1">
          <mxGeometry x="370" y="210" width="30" height="30" as="geometry" />
        </mxCell>
        <mxCell id="tNPvkO_qZganLPPO9eDa-67" value="2" style="ellipse;whiteSpace=wrap;html=1;" parent="1" vertex="1">
          <mxGeometry x="400" y="210" width="30" height="30" as="geometry" />
        </mxCell>
        <mxCell id="tNPvkO_qZganLPPO9eDa-68" value="5" style="ellipse;whiteSpace=wrap;html=1;" parent="1" vertex="1">
          <mxGeometry x="430" y="210" width="30" height="30" as="geometry" />
        </mxCell>
        <mxCell id="tNPvkO_qZganLPPO9eDa-69" value="8" style="ellipse;whiteSpace=wrap;html=1;" parent="1" vertex="1">
          <mxGeometry x="460" y="210" width="30" height="30" as="geometry" />
        </mxCell>
        <mxCell id="tNPvkO_qZganLPPO9eDa-70" value="6" style="ellipse;whiteSpace=wrap;html=1;" parent="1" vertex="1">
          <mxGeometry x="490" y="210" width="30" height="30" as="geometry" />
        </mxCell>
        <mxCell id="tNPvkO_qZganLPPO9eDa-71" value="7" style="ellipse;whiteSpace=wrap;html=1;" parent="1" vertex="1">
          <mxGeometry x="520" y="210" width="30" height="30" as="geometry" />
        </mxCell>
        <mxCell id="tNPvkO_qZganLPPO9eDa-72" value="4" style="ellipse;whiteSpace=wrap;html=1;" parent="1" vertex="1">
          <mxGeometry x="550" y="210" width="30" height="30" as="geometry" />
        </mxCell>
        <mxCell id="tNPvkO_qZganLPPO9eDa-73" value="Postvisit:&amp;nbsp;" style="text;html=1;align=center;verticalAlign=middle;whiteSpace=wrap;rounded=0;" parent="1" vertex="1">
          <mxGeometry x="280" y="250" width="60" height="30" as="geometry" />
        </mxCell>
        <mxCell id="tNPvkO_qZganLPPO9eDa-74" value="2" style="ellipse;whiteSpace=wrap;html=1;" parent="1" vertex="1">
          <mxGeometry x="340" y="250" width="30" height="30" as="geometry" />
        </mxCell>
        <mxCell id="tNPvkO_qZganLPPO9eDa-75" value="3" style="ellipse;whiteSpace=wrap;html=1;" parent="1" vertex="1">
          <mxGeometry x="370" y="250" width="30" height="30" as="geometry" />
        </mxCell>
        <mxCell id="tNPvkO_qZganLPPO9eDa-76" value="8" style="ellipse;whiteSpace=wrap;html=1;" parent="1" vertex="1">
          <mxGeometry x="400" y="250" width="30" height="30" as="geometry" />
        </mxCell>
        <mxCell id="tNPvkO_qZganLPPO9eDa-77" value="5" style="ellipse;whiteSpace=wrap;html=1;" parent="1" vertex="1">
          <mxGeometry x="430" y="250" width="30" height="30" as="geometry" />
        </mxCell>
        <mxCell id="tNPvkO_qZganLPPO9eDa-78" value="7" style="ellipse;whiteSpace=wrap;html=1;" parent="1" vertex="1">
          <mxGeometry x="460" y="250" width="30" height="30" as="geometry" />
        </mxCell>
        <mxCell id="tNPvkO_qZganLPPO9eDa-79" value="6" style="ellipse;whiteSpace=wrap;html=1;" parent="1" vertex="1">
          <mxGeometry x="490" y="250" width="30" height="30" as="geometry" />
        </mxCell>
        <mxCell id="tNPvkO_qZganLPPO9eDa-80" value="1" style="ellipse;whiteSpace=wrap;html=1;" parent="1" vertex="1">
          <mxGeometry x="520" y="250" width="30" height="30" as="geometry" />
        </mxCell>
        <mxCell id="tNPvkO_qZganLPPO9eDa-81" value="4" style="ellipse;whiteSpace=wrap;html=1;" parent="1" vertex="1">
          <mxGeometry x="550" y="250" width="30" height="30" as="geometry" />
        </mxCell>
        <mxCell id="tNPvkO_qZganLPPO9eDa-93" style="edgeStyle=orthogonalEdgeStyle;rounded=0;orthogonalLoop=1;jettySize=auto;html=1;exitX=0.5;exitY=1;exitDx=0;exitDy=0;entryX=0.5;entryY=0;entryDx=0;entryDy=0;" parent="1" source="tNPvkO_qZganLPPO9eDa-83" target="tNPvkO_qZganLPPO9eDa-89" edge="1">
          <mxGeometry relative="1" as="geometry" />
        </mxCell>
        <mxCell id="tNPvkO_qZganLPPO9eDa-83" value="1,2,3,6,7" style="ellipse;whiteSpace=wrap;html=1;" parent="1" vertex="1">
          <mxGeometry x="630" y="30" width="60" height="60" as="geometry" />
        </mxCell>
        <mxCell id="tNPvkO_qZganLPPO9eDa-85" style="edgeStyle=orthogonalEdgeStyle;rounded=0;orthogonalLoop=1;jettySize=auto;html=1;exitX=0;exitY=0.5;exitDx=0;exitDy=0;entryX=1;entryY=0.5;entryDx=0;entryDy=0;" parent="1" source="tNPvkO_qZganLPPO9eDa-88" target="tNPvkO_qZganLPPO9eDa-83" edge="1">
          <mxGeometry relative="1" as="geometry">
            <mxPoint x="719.9999999999998" y="57.5" as="sourcePoint" />
          </mxGeometry>
        </mxCell>
        <mxCell id="tNPvkO_qZganLPPO9eDa-88" value="4" style="ellipse;whiteSpace=wrap;html=1;" parent="1" vertex="1">
          <mxGeometry x="730" y="30" width="60" height="60" as="geometry" />
        </mxCell>
        <mxCell id="tNPvkO_qZganLPPO9eDa-94" style="edgeStyle=orthogonalEdgeStyle;rounded=0;orthogonalLoop=1;jettySize=auto;html=1;exitX=1;exitY=0.5;exitDx=0;exitDy=0;entryX=0;entryY=0.5;entryDx=0;entryDy=0;" parent="1" source="tNPvkO_qZganLPPO9eDa-89" target="tNPvkO_qZganLPPO9eDa-92" edge="1">
          <mxGeometry relative="1" as="geometry" />
        </mxCell>
        <mxCell id="tNPvkO_qZganLPPO9eDa-89" value="5" style="ellipse;whiteSpace=wrap;html=1;" parent="1" vertex="1">
          <mxGeometry x="630" y="110" width="60" height="60" as="geometry" />
        </mxCell>
        <mxCell id="tNPvkO_qZganLPPO9eDa-90" value="SCCs" style="text;html=1;align=center;verticalAlign=middle;whiteSpace=wrap;rounded=0;" parent="1" vertex="1">
          <mxGeometry x="680" y="180" width="60" height="30" as="geometry" />
        </mxCell>
        <mxCell id="tNPvkO_qZganLPPO9eDa-92" value="8" style="ellipse;whiteSpace=wrap;html=1;" parent="1" vertex="1">
          <mxGeometry x="730" y="110" width="60" height="60" as="geometry" />
        </mxCell>
        <mxCell id="tNPvkO_qZganLPPO9eDa-127" style="edgeStyle=orthogonalEdgeStyle;rounded=0;orthogonalLoop=1;jettySize=auto;html=1;exitX=0;exitY=1;exitDx=0;exitDy=0;entryX=0.5;entryY=0;entryDx=0;entryDy=0;" parent="1" source="tNPvkO_qZganLPPO9eDa-119" target="tNPvkO_qZganLPPO9eDa-120" edge="1">
          <mxGeometry relative="1" as="geometry" />
        </mxCell>
        <mxCell id="tNPvkO_qZganLPPO9eDa-128" style="edgeStyle=orthogonalEdgeStyle;rounded=0;orthogonalLoop=1;jettySize=auto;html=1;exitX=0;exitY=1;exitDx=0;exitDy=0;entryX=0.5;entryY=0;entryDx=0;entryDy=0;" parent="1" source="tNPvkO_qZganLPPO9eDa-119" target="tNPvkO_qZganLPPO9eDa-121" edge="1">
          <mxGeometry relative="1" as="geometry" />
        </mxCell>
        <mxCell id="tNPvkO_qZganLPPO9eDa-129" style="edgeStyle=orthogonalEdgeStyle;rounded=0;orthogonalLoop=1;jettySize=auto;html=1;exitX=1;exitY=1;exitDx=0;exitDy=0;entryX=0.5;entryY=0;entryDx=0;entryDy=0;" parent="1" source="tNPvkO_qZganLPPO9eDa-119" target="tNPvkO_qZganLPPO9eDa-122" edge="1">
          <mxGeometry relative="1" as="geometry" />
        </mxCell>
        <mxCell id="tNPvkO_qZganLPPO9eDa-130" style="edgeStyle=orthogonalEdgeStyle;rounded=0;orthogonalLoop=1;jettySize=auto;html=1;exitX=1;exitY=1;exitDx=0;exitDy=0;entryX=0.5;entryY=0;entryDx=0;entryDy=0;" parent="1" source="tNPvkO_qZganLPPO9eDa-119" target="tNPvkO_qZganLPPO9eDa-123" edge="1">
          <mxGeometry relative="1" as="geometry" />
        </mxCell>
        <mxCell id="tNPvkO_qZganLPPO9eDa-119" value="1" style="ellipse;whiteSpace=wrap;html=1;" parent="1" vertex="1">
          <mxGeometry x="920" y="20" width="30" height="30" as="geometry" />
        </mxCell>
        <mxCell id="tNPvkO_qZganLPPO9eDa-131" style="edgeStyle=orthogonalEdgeStyle;rounded=0;orthogonalLoop=1;jettySize=auto;html=1;exitX=0.5;exitY=1;exitDx=0;exitDy=0;entryX=0.5;entryY=0;entryDx=0;entryDy=0;" parent="1" source="tNPvkO_qZganLPPO9eDa-120" target="tNPvkO_qZganLPPO9eDa-124" edge="1">
          <mxGeometry relative="1" as="geometry" />
        </mxCell>
        <mxCell id="tNPvkO_qZganLPPO9eDa-120" value="3" style="ellipse;whiteSpace=wrap;html=1;" parent="1" vertex="1">
          <mxGeometry x="830" y="80" width="30" height="30" as="geometry" />
        </mxCell>
        <mxCell id="tNPvkO_qZganLPPO9eDa-132" style="edgeStyle=orthogonalEdgeStyle;rounded=0;orthogonalLoop=1;jettySize=auto;html=1;exitX=0.5;exitY=1;exitDx=0;exitDy=0;entryX=0.5;entryY=0;entryDx=0;entryDy=0;" parent="1" source="tNPvkO_qZganLPPO9eDa-121" target="tNPvkO_qZganLPPO9eDa-125" edge="1">
          <mxGeometry relative="1" as="geometry" />
        </mxCell>
        <mxCell id="tNPvkO_qZganLPPO9eDa-121" value="5" style="ellipse;whiteSpace=wrap;html=1;" parent="1" vertex="1">
          <mxGeometry x="890" y="80" width="30" height="30" as="geometry" />
        </mxCell>
        <mxCell id="tNPvkO_qZganLPPO9eDa-140" style="edgeStyle=orthogonalEdgeStyle;rounded=0;orthogonalLoop=1;jettySize=auto;html=1;exitX=0;exitY=0.5;exitDx=0;exitDy=0;entryX=1;entryY=0.5;entryDx=0;entryDy=0;dashed=1;" parent="1" source="tNPvkO_qZganLPPO9eDa-122" target="tNPvkO_qZganLPPO9eDa-121" edge="1">
          <mxGeometry relative="1" as="geometry" />
        </mxCell>
        <mxCell id="tNPvkO_qZganLPPO9eDa-141" style="edgeStyle=orthogonalEdgeStyle;rounded=0;orthogonalLoop=1;jettySize=auto;html=1;exitX=1;exitY=0.5;exitDx=0;exitDy=0;entryX=0;entryY=0.5;entryDx=0;entryDy=0;dashed=1;" parent="1" source="tNPvkO_qZganLPPO9eDa-122" target="tNPvkO_qZganLPPO9eDa-123" edge="1">
          <mxGeometry relative="1" as="geometry" />
        </mxCell>
        <mxCell id="tNPvkO_qZganLPPO9eDa-122" value="6" style="ellipse;whiteSpace=wrap;html=1;" parent="1" vertex="1">
          <mxGeometry x="950" y="80" width="30" height="30" as="geometry" />
        </mxCell>
        <mxCell id="tNPvkO_qZganLPPO9eDa-142" style="edgeStyle=orthogonalEdgeStyle;rounded=1;orthogonalLoop=1;jettySize=auto;html=1;exitX=0.5;exitY=1;exitDx=0;exitDy=0;entryX=1;entryY=1;entryDx=0;entryDy=0;curved=0;dashed=1;" parent="1" source="tNPvkO_qZganLPPO9eDa-123" target="tNPvkO_qZganLPPO9eDa-120" edge="1">
          <mxGeometry relative="1" as="geometry">
            <Array as="points">
              <mxPoint x="1025" y="120" />
              <mxPoint x="856" y="120" />
              <mxPoint x="856" y="106" />
            </Array>
          </mxGeometry>
        </mxCell>
        <mxCell id="tNPvkO_qZganLPPO9eDa-123" value="7" style="ellipse;whiteSpace=wrap;html=1;" parent="1" vertex="1">
          <mxGeometry x="1010" y="80" width="30" height="30" as="geometry" />
        </mxCell>
        <mxCell id="tNPvkO_qZganLPPO9eDa-143" style="edgeStyle=orthogonalEdgeStyle;rounded=1;orthogonalLoop=1;jettySize=auto;html=1;exitX=1;exitY=0.5;exitDx=0;exitDy=0;entryX=0;entryY=0.5;entryDx=0;entryDy=0;curved=0;dashed=1;" parent="1" source="tNPvkO_qZganLPPO9eDa-124" target="tNPvkO_qZganLPPO9eDa-119" edge="1">
          <mxGeometry relative="1" as="geometry">
            <Array as="points">
              <mxPoint x="880" y="155" />
              <mxPoint x="880" y="35" />
            </Array>
          </mxGeometry>
        </mxCell>
        <mxCell id="tNPvkO_qZganLPPO9eDa-124" value="2" style="ellipse;whiteSpace=wrap;html=1;" parent="1" vertex="1">
          <mxGeometry x="830" y="140" width="30" height="30" as="geometry" />
        </mxCell>
        <mxCell id="tNPvkO_qZganLPPO9eDa-125" value="8" style="ellipse;whiteSpace=wrap;html=1;" parent="1" vertex="1">
          <mxGeometry x="890" y="140" width="30" height="30" as="geometry" />
        </mxCell>
        <mxCell id="tNPvkO_qZganLPPO9eDa-144" style="edgeStyle=orthogonalEdgeStyle;rounded=1;orthogonalLoop=1;jettySize=auto;html=1;exitX=0.5;exitY=1;exitDx=0;exitDy=0;entryX=1;entryY=1;entryDx=0;entryDy=0;dashed=1;curved=0;" parent="1" source="tNPvkO_qZganLPPO9eDa-126" target="tNPvkO_qZganLPPO9eDa-120" edge="1">
          <mxGeometry relative="1" as="geometry">
            <Array as="points">
              <mxPoint x="1110" y="130" />
              <mxPoint x="856" y="130" />
            </Array>
          </mxGeometry>
        </mxCell>
        <mxCell id="tNPvkO_qZganLPPO9eDa-145" style="edgeStyle=orthogonalEdgeStyle;rounded=1;orthogonalLoop=1;jettySize=auto;html=1;exitX=0;exitY=1;exitDx=0;exitDy=0;entryX=1;entryY=0.5;entryDx=0;entryDy=0;dashed=1;curved=0;" parent="1" source="tNPvkO_qZganLPPO9eDa-126" target="tNPvkO_qZganLPPO9eDa-123" edge="1">
          <mxGeometry relative="1" as="geometry">
            <Array as="points">
              <mxPoint x="1099" y="95" />
            </Array>
          </mxGeometry>
        </mxCell>
        <mxCell id="tNPvkO_qZganLPPO9eDa-126" value="4" style="ellipse;whiteSpace=wrap;html=1;" parent="1" vertex="1">
          <mxGeometry x="1095" y="20" width="30" height="30" as="geometry" />
        </mxCell>
        <mxCell id="tNPvkO_qZganLPPO9eDa-136" value="BFS Tree 1" style="text;html=1;align=center;verticalAlign=middle;whiteSpace=wrap;rounded=0;" parent="1" vertex="1">
          <mxGeometry x="897.5" y="170" width="75" height="30" as="geometry" />
        </mxCell>
        <mxCell id="tNPvkO_qZganLPPO9eDa-138" value="DFS Tree 2" style="text;html=1;align=center;verticalAlign=middle;whiteSpace=wrap;rounded=0;" parent="1" vertex="1">
          <mxGeometry x="525" y="170" width="65" height="30" as="geometry" />
        </mxCell>
        <mxCell id="tNPvkO_qZganLPPO9eDa-139" value="BFS Tree 2" style="text;html=1;align=center;verticalAlign=middle;whiteSpace=wrap;rounded=0;" parent="1" vertex="1">
          <mxGeometry x="1072.5" y="170" width="75" height="30" as="geometry" />
        </mxCell>
        <mxCell id="tNPvkO_qZganLPPO9eDa-150" value="Directed Graph" style="text;html=1;align=center;verticalAlign=middle;whiteSpace=wrap;rounded=0;" parent="1" vertex="1">
          <mxGeometry x="80" y="190" width="60" height="30" as="geometry" />
        </mxCell>
        <mxCell id="tNPvkO_qZganLPPO9eDa-151" value="1" style="ellipse;whiteSpace=wrap;html=1;" parent="1" vertex="1">
          <mxGeometry x="120" y="300" width="30" height="30" as="geometry" />
        </mxCell>
        <mxCell id="tNPvkO_qZganLPPO9eDa-152" value="2" style="ellipse;whiteSpace=wrap;html=1;" parent="1" vertex="1">
          <mxGeometry x="80" y="360" width="30" height="30" as="geometry" />
        </mxCell>
        <mxCell id="tNPvkO_qZganLPPO9eDa-153" value="3" style="ellipse;whiteSpace=wrap;html=1;" parent="1" vertex="1">
          <mxGeometry x="120" y="430" width="30" height="30" as="geometry" />
        </mxCell>
        <mxCell id="tNPvkO_qZganLPPO9eDa-154" value="" style="endArrow=none;html=1;rounded=0;exitX=1;exitY=0;exitDx=0;exitDy=0;entryX=0;entryY=1;entryDx=0;entryDy=0;startFill=0;" parent="1" source="tNPvkO_qZganLPPO9eDa-152" target="tNPvkO_qZganLPPO9eDa-151" edge="1">
          <mxGeometry width="50" height="50" relative="1" as="geometry">
            <mxPoint x="250" y="430" as="sourcePoint" />
            <mxPoint x="120" y="370" as="targetPoint" />
          </mxGeometry>
        </mxCell>
        <mxCell id="tNPvkO_qZganLPPO9eDa-180" value="2" style="edgeLabel;html=1;align=center;verticalAlign=middle;resizable=0;points=[];" parent="tNPvkO_qZganLPPO9eDa-154" vertex="1" connectable="0">
          <mxGeometry x="-0.1829" y="1" relative="1" as="geometry">
            <mxPoint as="offset" />
          </mxGeometry>
        </mxCell>
        <mxCell id="tNPvkO_qZganLPPO9eDa-155" value="" style="endArrow=none;html=1;rounded=0;exitX=0;exitY=0;exitDx=0;exitDy=0;entryX=1;entryY=1;entryDx=0;entryDy=0;startFill=0;" parent="1" source="tNPvkO_qZganLPPO9eDa-153" target="tNPvkO_qZganLPPO9eDa-152" edge="1">
          <mxGeometry width="50" height="50" relative="1" as="geometry">
            <mxPoint x="110" y="390" as="sourcePoint" />
            <mxPoint x="92" y="428" as="targetPoint" />
          </mxGeometry>
        </mxCell>
        <mxCell id="tNPvkO_qZganLPPO9eDa-181" value="4" style="edgeLabel;html=1;align=center;verticalAlign=middle;resizable=0;points=[];" parent="tNPvkO_qZganLPPO9eDa-155" vertex="1" connectable="0">
          <mxGeometry x="0.0589" relative="1" as="geometry">
            <mxPoint as="offset" />
          </mxGeometry>
        </mxCell>
        <mxCell id="tNPvkO_qZganLPPO9eDa-156" value="" style="endArrow=none;html=1;rounded=0;exitX=0.5;exitY=1;exitDx=0;exitDy=0;entryX=0.5;entryY=0;entryDx=0;entryDy=0;startFill=0;" parent="1" source="tNPvkO_qZganLPPO9eDa-151" target="tNPvkO_qZganLPPO9eDa-153" edge="1">
          <mxGeometry width="50" height="50" relative="1" as="geometry">
            <mxPoint x="120" y="400" as="sourcePoint" />
            <mxPoint x="138" y="448" as="targetPoint" />
          </mxGeometry>
        </mxCell>
        <mxCell id="tNPvkO_qZganLPPO9eDa-179" value="3" style="edgeLabel;html=1;align=center;verticalAlign=middle;resizable=0;points=[];" parent="tNPvkO_qZganLPPO9eDa-156" vertex="1" connectable="0">
          <mxGeometry x="-0.0639" relative="1" as="geometry">
            <mxPoint as="offset" />
          </mxGeometry>
        </mxCell>
        <mxCell id="tNPvkO_qZganLPPO9eDa-172" style="rounded=0;orthogonalLoop=1;jettySize=auto;html=1;exitX=0;exitY=1;exitDx=0;exitDy=0;entryX=1;entryY=0;entryDx=0;entryDy=0;endArrow=none;startFill=0;" parent="1" source="tNPvkO_qZganLPPO9eDa-158" target="tNPvkO_qZganLPPO9eDa-168" edge="1">
          <mxGeometry relative="1" as="geometry" />
        </mxCell>
        <mxCell id="tNPvkO_qZganLPPO9eDa-177" value="1" style="edgeLabel;html=1;align=center;verticalAlign=middle;resizable=0;points=[];" parent="tNPvkO_qZganLPPO9eDa-172" vertex="1" connectable="0">
          <mxGeometry x="-0.1575" relative="1" as="geometry">
            <mxPoint as="offset" />
          </mxGeometry>
        </mxCell>
        <mxCell id="tNPvkO_qZganLPPO9eDa-158" value="7" style="ellipse;whiteSpace=wrap;html=1;" parent="1" vertex="1">
          <mxGeometry x="240" y="360" width="30" height="30" as="geometry" />
        </mxCell>
        <mxCell id="tNPvkO_qZganLPPO9eDa-183" style="rounded=0;orthogonalLoop=1;jettySize=auto;html=1;exitX=1;exitY=0;exitDx=0;exitDy=0;entryX=0;entryY=1;entryDx=0;entryDy=0;endArrow=none;startFill=0;" parent="1" source="tNPvkO_qZganLPPO9eDa-160" target="tNPvkO_qZganLPPO9eDa-161" edge="1">
          <mxGeometry relative="1" as="geometry" />
        </mxCell>
        <mxCell id="tNPvkO_qZganLPPO9eDa-184" value="1" style="edgeLabel;html=1;align=center;verticalAlign=middle;resizable=0;points=[];" parent="tNPvkO_qZganLPPO9eDa-183" vertex="1" connectable="0">
          <mxGeometry x="0.4317" y="1" relative="1" as="geometry">
            <mxPoint as="offset" />
          </mxGeometry>
        </mxCell>
        <mxCell id="tNPvkO_qZganLPPO9eDa-185" style="edgeStyle=orthogonalEdgeStyle;rounded=0;orthogonalLoop=1;jettySize=auto;html=1;exitX=1;exitY=0.5;exitDx=0;exitDy=0;entryX=0;entryY=0.5;entryDx=0;entryDy=0;endArrow=none;startFill=0;" parent="1" source="tNPvkO_qZganLPPO9eDa-160" target="tNPvkO_qZganLPPO9eDa-158" edge="1">
          <mxGeometry relative="1" as="geometry" />
        </mxCell>
        <mxCell id="tNPvkO_qZganLPPO9eDa-186" value="3" style="edgeLabel;html=1;align=center;verticalAlign=middle;resizable=0;points=[];" parent="tNPvkO_qZganLPPO9eDa-185" vertex="1" connectable="0">
          <mxGeometry x="-0.027" relative="1" as="geometry">
            <mxPoint as="offset" />
          </mxGeometry>
        </mxCell>
        <mxCell id="tNPvkO_qZganLPPO9eDa-160" value="5" style="ellipse;whiteSpace=wrap;html=1;" parent="1" vertex="1">
          <mxGeometry x="160" y="360" width="30" height="30" as="geometry" />
        </mxCell>
        <mxCell id="tNPvkO_qZganLPPO9eDa-161" value="6" style="ellipse;whiteSpace=wrap;html=1;" parent="1" vertex="1">
          <mxGeometry x="200" y="300" width="30" height="30" as="geometry" />
        </mxCell>
        <mxCell id="tNPvkO_qZganLPPO9eDa-162" value="" style="endArrow=none;html=1;rounded=0;exitX=1;exitY=1;exitDx=0;exitDy=0;entryX=0;entryY=0;entryDx=0;entryDy=0;startFill=0;" parent="1" source="tNPvkO_qZganLPPO9eDa-151" target="tNPvkO_qZganLPPO9eDa-160" edge="1">
          <mxGeometry width="50" height="50" relative="1" as="geometry">
            <mxPoint x="160" y="360" as="sourcePoint" />
            <mxPoint x="170" y="460" as="targetPoint" />
          </mxGeometry>
        </mxCell>
        <mxCell id="tNPvkO_qZganLPPO9eDa-178" value="4" style="edgeLabel;html=1;align=center;verticalAlign=middle;resizable=0;points=[];" parent="tNPvkO_qZganLPPO9eDa-162" vertex="1" connectable="0">
          <mxGeometry x="0.086" y="-1" relative="1" as="geometry">
            <mxPoint as="offset" />
          </mxGeometry>
        </mxCell>
        <mxCell id="tNPvkO_qZganLPPO9eDa-164" value="" style="endArrow=none;html=1;rounded=0;exitX=1;exitY=0.5;exitDx=0;exitDy=0;entryX=0;entryY=0.5;entryDx=0;entryDy=0;startFill=0;" parent="1" source="tNPvkO_qZganLPPO9eDa-151" target="tNPvkO_qZganLPPO9eDa-161" edge="1">
          <mxGeometry width="50" height="50" relative="1" as="geometry">
            <mxPoint x="160" y="340" as="sourcePoint" />
            <mxPoint x="188" y="378" as="targetPoint" />
          </mxGeometry>
        </mxCell>
        <mxCell id="tNPvkO_qZganLPPO9eDa-174" value="2" style="edgeLabel;html=1;align=center;verticalAlign=middle;resizable=0;points=[];" parent="tNPvkO_qZganLPPO9eDa-164" vertex="1" connectable="0">
          <mxGeometry x="-0.0374" y="1" relative="1" as="geometry">
            <mxPoint as="offset" />
          </mxGeometry>
        </mxCell>
        <mxCell id="tNPvkO_qZganLPPO9eDa-165" value="" style="endArrow=none;html=1;rounded=0;exitX=1;exitY=1;exitDx=0;exitDy=0;entryX=0;entryY=0;entryDx=0;entryDy=0;startFill=0;" parent="1" source="tNPvkO_qZganLPPO9eDa-161" target="tNPvkO_qZganLPPO9eDa-158" edge="1">
          <mxGeometry width="50" height="50" relative="1" as="geometry">
            <mxPoint x="248" y="322" as="sourcePoint" />
            <mxPoint x="230" y="360" as="targetPoint" />
          </mxGeometry>
        </mxCell>
        <mxCell id="tNPvkO_qZganLPPO9eDa-175" value="3" style="edgeLabel;html=1;align=center;verticalAlign=middle;resizable=0;points=[];" parent="tNPvkO_qZganLPPO9eDa-165" vertex="1" connectable="0">
          <mxGeometry x="-0.1816" relative="1" as="geometry">
            <mxPoint as="offset" />
          </mxGeometry>
        </mxCell>
        <mxCell id="tNPvkO_qZganLPPO9eDa-166" value="" style="endArrow=none;html=1;rounded=0;exitX=0.979;exitY=0.712;exitDx=0;exitDy=0;entryX=0;entryY=0.333;entryDx=0;entryDy=0;exitPerimeter=0;entryPerimeter=0;startFill=0;" parent="1" source="tNPvkO_qZganLPPO9eDa-151" target="tNPvkO_qZganLPPO9eDa-158" edge="1">
          <mxGeometry width="50" height="50" relative="1" as="geometry">
            <mxPoint x="248" y="340" as="sourcePoint" />
            <mxPoint x="220" y="378" as="targetPoint" />
          </mxGeometry>
        </mxCell>
        <mxCell id="tNPvkO_qZganLPPO9eDa-176" value="3" style="edgeLabel;html=1;align=center;verticalAlign=middle;resizable=0;points=[];" parent="tNPvkO_qZganLPPO9eDa-166" vertex="1" connectable="0">
          <mxGeometry x="-0.0291" y="-2" relative="1" as="geometry">
            <mxPoint x="-12" y="-7" as="offset" />
          </mxGeometry>
        </mxCell>
        <mxCell id="tNPvkO_qZganLPPO9eDa-167" style="edgeStyle=orthogonalEdgeStyle;rounded=0;orthogonalLoop=1;jettySize=auto;html=1;exitX=0;exitY=0.5;exitDx=0;exitDy=0;entryX=1;entryY=0.5;entryDx=0;entryDy=0;endArrow=none;startFill=0;" parent="1" source="tNPvkO_qZganLPPO9eDa-168" target="tNPvkO_qZganLPPO9eDa-153" edge="1">
          <mxGeometry relative="1" as="geometry">
            <Array as="points">
              <mxPoint x="180" y="445" />
              <mxPoint x="180" y="445" />
            </Array>
          </mxGeometry>
        </mxCell>
        <mxCell id="VTCQorgT1Lv42A0Qfak3-30" value="2" style="edgeLabel;html=1;align=center;verticalAlign=middle;resizable=0;points=[];" vertex="1" connectable="0" parent="tNPvkO_qZganLPPO9eDa-167">
          <mxGeometry x="-0.023" y="-1" relative="1" as="geometry">
            <mxPoint x="-1" y="1" as="offset" />
          </mxGeometry>
        </mxCell>
        <mxCell id="tNPvkO_qZganLPPO9eDa-168" value="4" style="ellipse;whiteSpace=wrap;html=1;" parent="1" vertex="1">
          <mxGeometry x="200" y="430" width="30" height="30" as="geometry" />
        </mxCell>
        <mxCell id="tNPvkO_qZganLPPO9eDa-171" value="Weighted&lt;div&gt;Undirected&lt;/div&gt;&lt;div&gt;Graph&lt;/div&gt;" style="text;html=1;align=center;verticalAlign=middle;whiteSpace=wrap;rounded=0;" parent="1" vertex="1">
          <mxGeometry x="80" y="480" width="60" height="30" as="geometry" />
        </mxCell>
        <mxCell id="VTCQorgT1Lv42A0Qfak3-31" value="1" style="ellipse;whiteSpace=wrap;html=1;" vertex="1" parent="1">
          <mxGeometry x="560" y="300" width="30" height="30" as="geometry" />
        </mxCell>
        <mxCell id="VTCQorgT1Lv42A0Qfak3-32" value="2" style="ellipse;whiteSpace=wrap;html=1;" vertex="1" parent="1">
          <mxGeometry x="520" y="360" width="30" height="30" as="geometry" />
        </mxCell>
        <mxCell id="VTCQorgT1Lv42A0Qfak3-33" value="3" style="ellipse;whiteSpace=wrap;html=1;" vertex="1" parent="1">
          <mxGeometry x="560" y="430" width="30" height="30" as="geometry" />
        </mxCell>
        <mxCell id="VTCQorgT1Lv42A0Qfak3-34" value="" style="endArrow=none;html=1;rounded=0;exitX=1;exitY=0;exitDx=0;exitDy=0;entryX=0;entryY=1;entryDx=0;entryDy=0;startFill=0;" edge="1" parent="1" source="VTCQorgT1Lv42A0Qfak3-32" target="VTCQorgT1Lv42A0Qfak3-31">
          <mxGeometry width="50" height="50" relative="1" as="geometry">
            <mxPoint x="690" y="430" as="sourcePoint" />
            <mxPoint x="560" y="370" as="targetPoint" />
          </mxGeometry>
        </mxCell>
        <mxCell id="VTCQorgT1Lv42A0Qfak3-35" value="2" style="edgeLabel;html=1;align=center;verticalAlign=middle;resizable=0;points=[];" vertex="1" connectable="0" parent="VTCQorgT1Lv42A0Qfak3-34">
          <mxGeometry x="-0.1829" y="1" relative="1" as="geometry">
            <mxPoint as="offset" />
          </mxGeometry>
        </mxCell>
        <mxCell id="VTCQorgT1Lv42A0Qfak3-42" value="7" style="ellipse;whiteSpace=wrap;html=1;" vertex="1" parent="1">
          <mxGeometry x="680" y="360" width="30" height="30" as="geometry" />
        </mxCell>
        <mxCell id="VTCQorgT1Lv42A0Qfak3-43" style="rounded=0;orthogonalLoop=1;jettySize=auto;html=1;exitX=1;exitY=0;exitDx=0;exitDy=0;entryX=0;entryY=1;entryDx=0;entryDy=0;endArrow=none;startFill=0;" edge="1" parent="1" source="VTCQorgT1Lv42A0Qfak3-47" target="VTCQorgT1Lv42A0Qfak3-48">
          <mxGeometry relative="1" as="geometry" />
        </mxCell>
        <mxCell id="VTCQorgT1Lv42A0Qfak3-44" value="1" style="edgeLabel;html=1;align=center;verticalAlign=middle;resizable=0;points=[];" vertex="1" connectable="0" parent="VTCQorgT1Lv42A0Qfak3-43">
          <mxGeometry x="0.4317" y="1" relative="1" as="geometry">
            <mxPoint as="offset" />
          </mxGeometry>
        </mxCell>
        <mxCell id="VTCQorgT1Lv42A0Qfak3-47" value="5" style="ellipse;whiteSpace=wrap;html=1;" vertex="1" parent="1">
          <mxGeometry x="600" y="360" width="30" height="30" as="geometry" />
        </mxCell>
        <mxCell id="VTCQorgT1Lv42A0Qfak3-48" value="6" style="ellipse;whiteSpace=wrap;html=1;" vertex="1" parent="1">
          <mxGeometry x="640" y="300" width="30" height="30" as="geometry" />
        </mxCell>
        <mxCell id="VTCQorgT1Lv42A0Qfak3-51" value="" style="endArrow=none;html=1;rounded=0;exitX=1;exitY=0.5;exitDx=0;exitDy=0;entryX=0;entryY=0.5;entryDx=0;entryDy=0;startFill=0;" edge="1" parent="1" source="VTCQorgT1Lv42A0Qfak3-31" target="VTCQorgT1Lv42A0Qfak3-48">
          <mxGeometry width="50" height="50" relative="1" as="geometry">
            <mxPoint x="600" y="340" as="sourcePoint" />
            <mxPoint x="628" y="378" as="targetPoint" />
          </mxGeometry>
        </mxCell>
        <mxCell id="VTCQorgT1Lv42A0Qfak3-52" value="2" style="edgeLabel;html=1;align=center;verticalAlign=middle;resizable=0;points=[];" vertex="1" connectable="0" parent="VTCQorgT1Lv42A0Qfak3-51">
          <mxGeometry x="-0.0374" y="1" relative="1" as="geometry">
            <mxPoint as="offset" />
          </mxGeometry>
        </mxCell>
        <mxCell id="VTCQorgT1Lv42A0Qfak3-55" value="" style="endArrow=none;html=1;rounded=0;exitX=0.979;exitY=0.712;exitDx=0;exitDy=0;entryX=0;entryY=0.333;entryDx=0;entryDy=0;exitPerimeter=0;entryPerimeter=0;startFill=0;" edge="1" parent="1" source="VTCQorgT1Lv42A0Qfak3-31" target="VTCQorgT1Lv42A0Qfak3-42">
          <mxGeometry width="50" height="50" relative="1" as="geometry">
            <mxPoint x="688" y="340" as="sourcePoint" />
            <mxPoint x="660" y="378" as="targetPoint" />
          </mxGeometry>
        </mxCell>
        <mxCell id="VTCQorgT1Lv42A0Qfak3-56" value="3" style="edgeLabel;html=1;align=center;verticalAlign=middle;resizable=0;points=[];" vertex="1" connectable="0" parent="VTCQorgT1Lv42A0Qfak3-55">
          <mxGeometry x="-0.0291" y="-2" relative="1" as="geometry">
            <mxPoint x="-12" y="-7" as="offset" />
          </mxGeometry>
        </mxCell>
        <mxCell id="VTCQorgT1Lv42A0Qfak3-57" style="edgeStyle=orthogonalEdgeStyle;rounded=0;orthogonalLoop=1;jettySize=auto;html=1;exitX=0;exitY=0.5;exitDx=0;exitDy=0;entryX=1;entryY=0.5;entryDx=0;entryDy=0;endArrow=none;startFill=0;" edge="1" parent="1" source="VTCQorgT1Lv42A0Qfak3-60" target="VTCQorgT1Lv42A0Qfak3-33">
          <mxGeometry relative="1" as="geometry">
            <Array as="points">
              <mxPoint x="620" y="445" />
              <mxPoint x="620" y="445" />
            </Array>
          </mxGeometry>
        </mxCell>
        <mxCell id="VTCQorgT1Lv42A0Qfak3-59" value="2" style="edgeLabel;html=1;align=center;verticalAlign=middle;resizable=0;points=[];" vertex="1" connectable="0" parent="VTCQorgT1Lv42A0Qfak3-57">
          <mxGeometry x="-0.023" y="-1" relative="1" as="geometry">
            <mxPoint x="-1" y="1" as="offset" />
          </mxGeometry>
        </mxCell>
        <mxCell id="VTCQorgT1Lv42A0Qfak3-156" style="rounded=0;orthogonalLoop=1;jettySize=auto;html=1;exitX=1;exitY=0;exitDx=0;exitDy=0;entryX=0;entryY=1;entryDx=0;entryDy=0;endArrow=none;endFill=0;" edge="1" parent="1" source="VTCQorgT1Lv42A0Qfak3-60" target="VTCQorgT1Lv42A0Qfak3-42">
          <mxGeometry relative="1" as="geometry" />
        </mxCell>
        <mxCell id="VTCQorgT1Lv42A0Qfak3-158" value="1" style="edgeLabel;html=1;align=center;verticalAlign=middle;resizable=0;points=[];" vertex="1" connectable="0" parent="VTCQorgT1Lv42A0Qfak3-156">
          <mxGeometry x="0.2207" y="1" relative="1" as="geometry">
            <mxPoint as="offset" />
          </mxGeometry>
        </mxCell>
        <mxCell id="VTCQorgT1Lv42A0Qfak3-60" value="4" style="ellipse;whiteSpace=wrap;html=1;" vertex="1" parent="1">
          <mxGeometry x="640" y="430" width="30" height="30" as="geometry" />
        </mxCell>
        <mxCell id="VTCQorgT1Lv42A0Qfak3-61" value="Minimum&lt;div&gt;Spanning&lt;/div&gt;&lt;div&gt;Tree&lt;/div&gt;" style="text;html=1;align=center;verticalAlign=middle;whiteSpace=wrap;rounded=0;" vertex="1" parent="1">
          <mxGeometry x="510" y="470" width="60" height="30" as="geometry" />
        </mxCell>
        <mxCell id="VTCQorgT1Lv42A0Qfak3-62" value="0" style="ellipse;whiteSpace=wrap;html=1;" vertex="1" parent="1">
          <mxGeometry x="340" y="300" width="30" height="30" as="geometry" />
        </mxCell>
        <mxCell id="VTCQorgT1Lv42A0Qfak3-63" value="2" style="ellipse;whiteSpace=wrap;html=1;" vertex="1" parent="1">
          <mxGeometry x="300" y="360" width="30" height="30" as="geometry" />
        </mxCell>
        <mxCell id="VTCQorgT1Lv42A0Qfak3-64" value="3" style="ellipse;whiteSpace=wrap;html=1;" vertex="1" parent="1">
          <mxGeometry x="340" y="430" width="30" height="30" as="geometry" />
        </mxCell>
        <mxCell id="VTCQorgT1Lv42A0Qfak3-65" value="" style="endArrow=none;html=1;rounded=0;exitX=1;exitY=0;exitDx=0;exitDy=0;entryX=0;entryY=1;entryDx=0;entryDy=0;startFill=0;" edge="1" parent="1" source="VTCQorgT1Lv42A0Qfak3-63" target="VTCQorgT1Lv42A0Qfak3-62">
          <mxGeometry width="50" height="50" relative="1" as="geometry">
            <mxPoint x="470" y="430" as="sourcePoint" />
            <mxPoint x="340" y="370" as="targetPoint" />
          </mxGeometry>
        </mxCell>
        <mxCell id="VTCQorgT1Lv42A0Qfak3-66" value="2" style="edgeLabel;html=1;align=center;verticalAlign=middle;resizable=0;points=[];" vertex="1" connectable="0" parent="VTCQorgT1Lv42A0Qfak3-65">
          <mxGeometry x="-0.1829" y="1" relative="1" as="geometry">
            <mxPoint as="offset" />
          </mxGeometry>
        </mxCell>
        <mxCell id="VTCQorgT1Lv42A0Qfak3-67" value="" style="endArrow=none;html=1;rounded=0;exitX=0;exitY=0;exitDx=0;exitDy=0;entryX=1;entryY=1;entryDx=0;entryDy=0;startFill=0;" edge="1" parent="1" source="VTCQorgT1Lv42A0Qfak3-64" target="VTCQorgT1Lv42A0Qfak3-63">
          <mxGeometry width="50" height="50" relative="1" as="geometry">
            <mxPoint x="330" y="390" as="sourcePoint" />
            <mxPoint x="312" y="428" as="targetPoint" />
          </mxGeometry>
        </mxCell>
        <mxCell id="VTCQorgT1Lv42A0Qfak3-68" value="4" style="edgeLabel;html=1;align=center;verticalAlign=middle;resizable=0;points=[];" vertex="1" connectable="0" parent="VTCQorgT1Lv42A0Qfak3-67">
          <mxGeometry x="0.0589" relative="1" as="geometry">
            <mxPoint as="offset" />
          </mxGeometry>
        </mxCell>
        <mxCell id="VTCQorgT1Lv42A0Qfak3-69" value="" style="endArrow=none;html=1;rounded=0;exitX=0.5;exitY=1;exitDx=0;exitDy=0;entryX=0.5;entryY=0;entryDx=0;entryDy=0;startFill=0;" edge="1" parent="1" source="VTCQorgT1Lv42A0Qfak3-62" target="VTCQorgT1Lv42A0Qfak3-64">
          <mxGeometry width="50" height="50" relative="1" as="geometry">
            <mxPoint x="340" y="400" as="sourcePoint" />
            <mxPoint x="358" y="448" as="targetPoint" />
          </mxGeometry>
        </mxCell>
        <mxCell id="VTCQorgT1Lv42A0Qfak3-70" value="3" style="edgeLabel;html=1;align=center;verticalAlign=middle;resizable=0;points=[];" vertex="1" connectable="0" parent="VTCQorgT1Lv42A0Qfak3-69">
          <mxGeometry x="-0.0639" relative="1" as="geometry">
            <mxPoint as="offset" />
          </mxGeometry>
        </mxCell>
        <mxCell id="VTCQorgT1Lv42A0Qfak3-71" style="rounded=0;orthogonalLoop=1;jettySize=auto;html=1;exitX=0;exitY=1;exitDx=0;exitDy=0;entryX=1;entryY=0;entryDx=0;entryDy=0;endArrow=none;startFill=0;" edge="1" parent="1" source="VTCQorgT1Lv42A0Qfak3-73" target="VTCQorgT1Lv42A0Qfak3-90">
          <mxGeometry relative="1" as="geometry" />
        </mxCell>
        <mxCell id="VTCQorgT1Lv42A0Qfak3-72" value="5" style="edgeLabel;html=1;align=center;verticalAlign=middle;resizable=0;points=[];" vertex="1" connectable="0" parent="VTCQorgT1Lv42A0Qfak3-71">
          <mxGeometry x="-0.1575" relative="1" as="geometry">
            <mxPoint as="offset" />
          </mxGeometry>
        </mxCell>
        <mxCell id="VTCQorgT1Lv42A0Qfak3-73" value="3" style="ellipse;whiteSpace=wrap;html=1;" vertex="1" parent="1">
          <mxGeometry x="460" y="360" width="30" height="30" as="geometry" />
        </mxCell>
        <mxCell id="VTCQorgT1Lv42A0Qfak3-74" style="rounded=0;orthogonalLoop=1;jettySize=auto;html=1;exitX=1;exitY=0;exitDx=0;exitDy=0;entryX=0;entryY=1;entryDx=0;entryDy=0;endArrow=none;startFill=0;" edge="1" parent="1" source="VTCQorgT1Lv42A0Qfak3-78" target="VTCQorgT1Lv42A0Qfak3-79">
          <mxGeometry relative="1" as="geometry" />
        </mxCell>
        <mxCell id="VTCQorgT1Lv42A0Qfak3-75" value="1" style="edgeLabel;html=1;align=center;verticalAlign=middle;resizable=0;points=[];" vertex="1" connectable="0" parent="VTCQorgT1Lv42A0Qfak3-74">
          <mxGeometry x="0.4317" y="1" relative="1" as="geometry">
            <mxPoint as="offset" />
          </mxGeometry>
        </mxCell>
        <mxCell id="VTCQorgT1Lv42A0Qfak3-76" style="edgeStyle=orthogonalEdgeStyle;rounded=0;orthogonalLoop=1;jettySize=auto;html=1;exitX=1;exitY=0.5;exitDx=0;exitDy=0;entryX=0;entryY=0.5;entryDx=0;entryDy=0;endArrow=none;startFill=0;" edge="1" parent="1" source="VTCQorgT1Lv42A0Qfak3-78" target="VTCQorgT1Lv42A0Qfak3-73">
          <mxGeometry relative="1" as="geometry" />
        </mxCell>
        <mxCell id="VTCQorgT1Lv42A0Qfak3-77" value="3" style="edgeLabel;html=1;align=center;verticalAlign=middle;resizable=0;points=[];" vertex="1" connectable="0" parent="VTCQorgT1Lv42A0Qfak3-76">
          <mxGeometry x="-0.027" relative="1" as="geometry">
            <mxPoint as="offset" />
          </mxGeometry>
        </mxCell>
        <mxCell id="VTCQorgT1Lv42A0Qfak3-78" value="3" style="ellipse;whiteSpace=wrap;html=1;" vertex="1" parent="1">
          <mxGeometry x="380" y="360" width="30" height="30" as="geometry" />
        </mxCell>
        <mxCell id="VTCQorgT1Lv42A0Qfak3-79" value="2" style="ellipse;whiteSpace=wrap;html=1;" vertex="1" parent="1">
          <mxGeometry x="420" y="300" width="30" height="30" as="geometry" />
        </mxCell>
        <mxCell id="VTCQorgT1Lv42A0Qfak3-80" value="" style="endArrow=none;html=1;rounded=0;exitX=1;exitY=1;exitDx=0;exitDy=0;entryX=0;entryY=0;entryDx=0;entryDy=0;startFill=0;" edge="1" parent="1" source="VTCQorgT1Lv42A0Qfak3-62" target="VTCQorgT1Lv42A0Qfak3-78">
          <mxGeometry width="50" height="50" relative="1" as="geometry">
            <mxPoint x="380" y="360" as="sourcePoint" />
            <mxPoint x="390" y="460" as="targetPoint" />
          </mxGeometry>
        </mxCell>
        <mxCell id="VTCQorgT1Lv42A0Qfak3-81" value="4" style="edgeLabel;html=1;align=center;verticalAlign=middle;resizable=0;points=[];" vertex="1" connectable="0" parent="VTCQorgT1Lv42A0Qfak3-80">
          <mxGeometry x="0.086" y="-1" relative="1" as="geometry">
            <mxPoint as="offset" />
          </mxGeometry>
        </mxCell>
        <mxCell id="VTCQorgT1Lv42A0Qfak3-82" value="" style="endArrow=none;html=1;rounded=0;exitX=1;exitY=0.5;exitDx=0;exitDy=0;entryX=0;entryY=0.5;entryDx=0;entryDy=0;startFill=0;" edge="1" parent="1" source="VTCQorgT1Lv42A0Qfak3-62" target="VTCQorgT1Lv42A0Qfak3-79">
          <mxGeometry width="50" height="50" relative="1" as="geometry">
            <mxPoint x="380" y="340" as="sourcePoint" />
            <mxPoint x="408" y="378" as="targetPoint" />
          </mxGeometry>
        </mxCell>
        <mxCell id="VTCQorgT1Lv42A0Qfak3-83" value="2" style="edgeLabel;html=1;align=center;verticalAlign=middle;resizable=0;points=[];" vertex="1" connectable="0" parent="VTCQorgT1Lv42A0Qfak3-82">
          <mxGeometry x="-0.0374" y="1" relative="1" as="geometry">
            <mxPoint as="offset" />
          </mxGeometry>
        </mxCell>
        <mxCell id="VTCQorgT1Lv42A0Qfak3-84" value="" style="endArrow=none;html=1;rounded=0;exitX=1;exitY=1;exitDx=0;exitDy=0;entryX=0;entryY=0;entryDx=0;entryDy=0;startFill=0;" edge="1" parent="1" source="VTCQorgT1Lv42A0Qfak3-79" target="VTCQorgT1Lv42A0Qfak3-73">
          <mxGeometry width="50" height="50" relative="1" as="geometry">
            <mxPoint x="468" y="322" as="sourcePoint" />
            <mxPoint x="450" y="360" as="targetPoint" />
          </mxGeometry>
        </mxCell>
        <mxCell id="VTCQorgT1Lv42A0Qfak3-85" value="3" style="edgeLabel;html=1;align=center;verticalAlign=middle;resizable=0;points=[];" vertex="1" connectable="0" parent="VTCQorgT1Lv42A0Qfak3-84">
          <mxGeometry x="-0.1816" relative="1" as="geometry">
            <mxPoint as="offset" />
          </mxGeometry>
        </mxCell>
        <mxCell id="VTCQorgT1Lv42A0Qfak3-86" value="" style="endArrow=none;html=1;rounded=0;exitX=0.979;exitY=0.712;exitDx=0;exitDy=0;entryX=0;entryY=0.333;entryDx=0;entryDy=0;exitPerimeter=0;entryPerimeter=0;startFill=0;" edge="1" parent="1" source="VTCQorgT1Lv42A0Qfak3-62" target="VTCQorgT1Lv42A0Qfak3-73">
          <mxGeometry width="50" height="50" relative="1" as="geometry">
            <mxPoint x="468" y="340" as="sourcePoint" />
            <mxPoint x="440" y="378" as="targetPoint" />
          </mxGeometry>
        </mxCell>
        <mxCell id="VTCQorgT1Lv42A0Qfak3-87" value="3" style="edgeLabel;html=1;align=center;verticalAlign=middle;resizable=0;points=[];" vertex="1" connectable="0" parent="VTCQorgT1Lv42A0Qfak3-86">
          <mxGeometry x="-0.0291" y="-2" relative="1" as="geometry">
            <mxPoint x="-12" y="-7" as="offset" />
          </mxGeometry>
        </mxCell>
        <mxCell id="VTCQorgT1Lv42A0Qfak3-88" style="edgeStyle=orthogonalEdgeStyle;rounded=0;orthogonalLoop=1;jettySize=auto;html=1;exitX=0;exitY=0.5;exitDx=0;exitDy=0;entryX=1;entryY=0.5;entryDx=0;entryDy=0;endArrow=none;startFill=0;" edge="1" parent="1" source="VTCQorgT1Lv42A0Qfak3-90" target="VTCQorgT1Lv42A0Qfak3-64">
          <mxGeometry relative="1" as="geometry">
            <Array as="points">
              <mxPoint x="400" y="445" />
              <mxPoint x="400" y="445" />
            </Array>
          </mxGeometry>
        </mxCell>
        <mxCell id="VTCQorgT1Lv42A0Qfak3-89" value="1" style="edgeLabel;html=1;align=center;verticalAlign=middle;resizable=0;points=[];" vertex="1" connectable="0" parent="VTCQorgT1Lv42A0Qfak3-88">
          <mxGeometry x="-0.023" y="-1" relative="1" as="geometry">
            <mxPoint x="-1" y="1" as="offset" />
          </mxGeometry>
        </mxCell>
        <mxCell id="VTCQorgT1Lv42A0Qfak3-90" value="4" style="ellipse;whiteSpace=wrap;html=1;" vertex="1" parent="1">
          <mxGeometry x="420" y="430" width="30" height="30" as="geometry" />
        </mxCell>
        <mxCell id="VTCQorgT1Lv42A0Qfak3-152" value="Shortest&lt;div&gt;Path&lt;/div&gt;" style="text;html=1;align=center;verticalAlign=middle;whiteSpace=wrap;rounded=0;" vertex="1" parent="1">
          <mxGeometry x="285" y="470" width="60" height="30" as="geometry" />
        </mxCell>
        <mxCell id="VTCQorgT1Lv42A0Qfak3-153" value="" style="endArrow=classic;html=1;rounded=0;entryX=0;entryY=0;entryDx=0;entryDy=0;" edge="1" parent="1" target="VTCQorgT1Lv42A0Qfak3-62">
          <mxGeometry width="50" height="50" relative="1" as="geometry">
            <mxPoint x="330" y="290" as="sourcePoint" />
            <mxPoint x="370" y="290" as="targetPoint" />
            <Array as="points" />
          </mxGeometry>
        </mxCell>
        <mxCell id="VTCQorgT1Lv42A0Qfak3-159" value="1" style="ellipse;whiteSpace=wrap;html=1;" vertex="1" parent="1">
          <mxGeometry x="780" y="300" width="30" height="30" as="geometry" />
        </mxCell>
        <mxCell id="VTCQorgT1Lv42A0Qfak3-160" value="2" style="ellipse;whiteSpace=wrap;html=1;" vertex="1" parent="1">
          <mxGeometry x="740" y="360" width="30" height="30" as="geometry" />
        </mxCell>
        <mxCell id="VTCQorgT1Lv42A0Qfak3-161" value="3" style="ellipse;whiteSpace=wrap;html=1;" vertex="1" parent="1">
          <mxGeometry x="780" y="430" width="30" height="30" as="geometry" />
        </mxCell>
        <mxCell id="VTCQorgT1Lv42A0Qfak3-162" value="" style="endArrow=none;html=1;rounded=0;exitX=1;exitY=0;exitDx=0;exitDy=0;entryX=0;entryY=1;entryDx=0;entryDy=0;startFill=0;" edge="1" parent="1" source="VTCQorgT1Lv42A0Qfak3-160" target="VTCQorgT1Lv42A0Qfak3-159">
          <mxGeometry width="50" height="50" relative="1" as="geometry">
            <mxPoint x="910" y="430" as="sourcePoint" />
            <mxPoint x="780" y="370" as="targetPoint" />
          </mxGeometry>
        </mxCell>
        <mxCell id="VTCQorgT1Lv42A0Qfak3-163" value="2" style="edgeLabel;html=1;align=center;verticalAlign=middle;resizable=0;points=[];" vertex="1" connectable="0" parent="VTCQorgT1Lv42A0Qfak3-162">
          <mxGeometry x="-0.1829" y="1" relative="1" as="geometry">
            <mxPoint as="offset" />
          </mxGeometry>
        </mxCell>
        <mxCell id="VTCQorgT1Lv42A0Qfak3-164" value="7" style="ellipse;whiteSpace=wrap;html=1;" vertex="1" parent="1">
          <mxGeometry x="900" y="360" width="30" height="30" as="geometry" />
        </mxCell>
        <mxCell id="VTCQorgT1Lv42A0Qfak3-165" style="rounded=0;orthogonalLoop=1;jettySize=auto;html=1;exitX=1;exitY=0;exitDx=0;exitDy=0;entryX=0;entryY=1;entryDx=0;entryDy=0;endArrow=none;startFill=0;strokeWidth=2;" edge="1" parent="1" source="VTCQorgT1Lv42A0Qfak3-167" target="VTCQorgT1Lv42A0Qfak3-168">
          <mxGeometry relative="1" as="geometry" />
        </mxCell>
        <mxCell id="VTCQorgT1Lv42A0Qfak3-166" value="1" style="edgeLabel;html=1;align=center;verticalAlign=middle;resizable=0;points=[];" vertex="1" connectable="0" parent="VTCQorgT1Lv42A0Qfak3-165">
          <mxGeometry x="0.4317" y="1" relative="1" as="geometry">
            <mxPoint as="offset" />
          </mxGeometry>
        </mxCell>
        <mxCell id="VTCQorgT1Lv42A0Qfak3-167" value="5" style="ellipse;whiteSpace=wrap;html=1;" vertex="1" parent="1">
          <mxGeometry x="820" y="360" width="30" height="30" as="geometry" />
        </mxCell>
        <mxCell id="VTCQorgT1Lv42A0Qfak3-168" value="6" style="ellipse;whiteSpace=wrap;html=1;" vertex="1" parent="1">
          <mxGeometry x="860" y="300" width="30" height="30" as="geometry" />
        </mxCell>
        <mxCell id="VTCQorgT1Lv42A0Qfak3-169" value="" style="endArrow=none;html=1;rounded=0;exitX=1;exitY=0.5;exitDx=0;exitDy=0;entryX=0;entryY=0.5;entryDx=0;entryDy=0;startFill=0;strokeWidth=2;" edge="1" parent="1" source="VTCQorgT1Lv42A0Qfak3-159" target="VTCQorgT1Lv42A0Qfak3-168">
          <mxGeometry width="50" height="50" relative="1" as="geometry">
            <mxPoint x="820" y="340" as="sourcePoint" />
            <mxPoint x="848" y="378" as="targetPoint" />
          </mxGeometry>
        </mxCell>
        <mxCell id="VTCQorgT1Lv42A0Qfak3-170" value="2" style="edgeLabel;html=1;align=center;verticalAlign=middle;resizable=0;points=[];" vertex="1" connectable="0" parent="VTCQorgT1Lv42A0Qfak3-169">
          <mxGeometry x="-0.0374" y="1" relative="1" as="geometry">
            <mxPoint as="offset" />
          </mxGeometry>
        </mxCell>
        <mxCell id="VTCQorgT1Lv42A0Qfak3-171" value="" style="endArrow=none;html=1;rounded=0;exitX=0.979;exitY=0.712;exitDx=0;exitDy=0;entryX=0;entryY=0.333;entryDx=0;entryDy=0;exitPerimeter=0;entryPerimeter=0;startFill=0;strokeWidth=2;" edge="1" parent="1" source="VTCQorgT1Lv42A0Qfak3-159" target="VTCQorgT1Lv42A0Qfak3-164">
          <mxGeometry width="50" height="50" relative="1" as="geometry">
            <mxPoint x="908" y="340" as="sourcePoint" />
            <mxPoint x="880" y="378" as="targetPoint" />
          </mxGeometry>
        </mxCell>
        <mxCell id="VTCQorgT1Lv42A0Qfak3-172" value="3" style="edgeLabel;html=1;align=center;verticalAlign=middle;resizable=0;points=[];" vertex="1" connectable="0" parent="VTCQorgT1Lv42A0Qfak3-171">
          <mxGeometry x="-0.0291" y="-2" relative="1" as="geometry">
            <mxPoint x="-12" y="-7" as="offset" />
          </mxGeometry>
        </mxCell>
        <mxCell id="VTCQorgT1Lv42A0Qfak3-173" style="edgeStyle=orthogonalEdgeStyle;rounded=0;orthogonalLoop=1;jettySize=auto;html=1;exitX=0;exitY=0.5;exitDx=0;exitDy=0;entryX=1;entryY=0.5;entryDx=0;entryDy=0;endArrow=none;startFill=0;strokeWidth=2;" edge="1" parent="1" source="VTCQorgT1Lv42A0Qfak3-177" target="VTCQorgT1Lv42A0Qfak3-161">
          <mxGeometry relative="1" as="geometry">
            <Array as="points">
              <mxPoint x="840" y="445" />
              <mxPoint x="840" y="445" />
            </Array>
          </mxGeometry>
        </mxCell>
        <mxCell id="VTCQorgT1Lv42A0Qfak3-174" value="2" style="edgeLabel;html=1;align=center;verticalAlign=middle;resizable=0;points=[];" vertex="1" connectable="0" parent="VTCQorgT1Lv42A0Qfak3-173">
          <mxGeometry x="-0.023" y="-1" relative="1" as="geometry">
            <mxPoint x="-1" y="1" as="offset" />
          </mxGeometry>
        </mxCell>
        <mxCell id="VTCQorgT1Lv42A0Qfak3-175" style="rounded=0;orthogonalLoop=1;jettySize=auto;html=1;exitX=1;exitY=0;exitDx=0;exitDy=0;entryX=0;entryY=1;entryDx=0;entryDy=0;endArrow=none;endFill=0;strokeWidth=2;" edge="1" parent="1" source="VTCQorgT1Lv42A0Qfak3-177" target="VTCQorgT1Lv42A0Qfak3-164">
          <mxGeometry relative="1" as="geometry" />
        </mxCell>
        <mxCell id="VTCQorgT1Lv42A0Qfak3-176" value="1" style="edgeLabel;html=1;align=center;verticalAlign=middle;resizable=0;points=[];" vertex="1" connectable="0" parent="VTCQorgT1Lv42A0Qfak3-175">
          <mxGeometry x="0.2207" y="1" relative="1" as="geometry">
            <mxPoint as="offset" />
          </mxGeometry>
        </mxCell>
        <mxCell id="VTCQorgT1Lv42A0Qfak3-177" value="4" style="ellipse;whiteSpace=wrap;html=1;" vertex="1" parent="1">
          <mxGeometry x="860" y="430" width="30" height="30" as="geometry" />
        </mxCell>
        <mxCell id="VTCQorgT1Lv42A0Qfak3-178" value="Diameter" style="text;html=1;align=center;verticalAlign=middle;whiteSpace=wrap;rounded=0;" vertex="1" parent="1">
          <mxGeometry x="730" y="470" width="60" height="30" as="geometry" />
        </mxCell>
        <mxCell id="VTCQorgT1Lv42A0Qfak3-179" value="" style="curved=1;endArrow=classic;html=1;rounded=0;exitX=1;exitY=0.5;exitDx=0;exitDy=0;entryX=1;entryY=1;entryDx=0;entryDy=0;dashed=1;" edge="1" parent="1" source="VTCQorgT1Lv42A0Qfak3-160" target="VTCQorgT1Lv42A0Qfak3-161">
          <mxGeometry width="50" height="50" relative="1" as="geometry">
            <mxPoint x="760" y="430" as="sourcePoint" />
            <mxPoint x="810" y="380" as="targetPoint" />
            <Array as="points">
              <mxPoint x="800" y="310" />
              <mxPoint x="860" y="370" />
              <mxPoint x="920" y="390" />
              <mxPoint x="890" y="490" />
            </Array>
          </mxGeometry>
        </mxCell>
      </root>
    </mxGraphModel>
  </diagram>
</mxfile>
